<?xml version="1.0" encoding="iso-8859-1"?>
<!-- Generator: Adobe Illustrator 19.0.0, SVG Export Plug-In . SVG Version: 6.00 Build 0)  -->
<svg version="1.1" id="Layer_1" xmlns="http://www.w3.org/2000/svg" xmlns:xlink="http://www.w3.org/1999/xlink" x="0px" y="0px"
	 viewBox="0 0 512 512" style="enable-background:new 0 0 512 512;" xml:space="preserve">
<g>
	<path style="fill:#495577;" d="M177.276,290.834c-0.509,0.42-1.017,0.851-1.537,1.272c-5.43,4.39-11.622,8.128-22.139,8.128
		c-12.684,0-19.076-5.419-25.412-10.892c-6.458-5.584-12.861-11.224-25.788-11.224c-6.591,0-11.49,1.471-15.559,3.638
		c-0.442-11.445,2.278-40.274,34.801-71.094C121.641,210.661,147.363,277.929,177.276,290.834z"/>
	<path style="fill:#495577;" d="M424.518,281.434c-3.948-1.991-8.67-3.317-14.929-3.317c-11.622,0-17.97,4.567-23.842,9.543
		c-7.044,5.983-13.392,12.573-27.358,12.573c-14.42,0-20.723-7.022-28.044-13.148c-5.684-4.755-11.987-8.968-23.156-8.968
		c-10.793,0-17.03,3.926-22.559,8.482c-7.586,6.237-13.834,13.635-28.641,13.635c-15.272,0-21.431-7.874-29.36-14.243h-0.011
		c-2.632-2.101-5.463-4.047-8.88-5.474c13.712-16.112,59.328-63.641,126.175-70.961C415.505,201.715,423.6,259.085,424.518,281.434z
		"/>
</g>
<g>
	<path style="fill:#61ACD2;" d="M372.665,183.015c-4.886,0-8.847-3.96-8.847-8.847V85.425c0-25.457,20.71-46.168,46.168-46.168
		c4.886,0,8.847,3.961,8.847,8.847s-3.961,8.847-8.847,8.847c-15.701,0-28.475,12.773-28.475,28.475v88.743
		C381.512,179.055,377.551,183.015,372.665,183.015z"/>
	<path style="fill:#61ACD2;" d="M334.79,183.015c-4.886,0-8.847-3.96-8.847-8.847v-43.404c0-15.702-12.775-28.475-28.475-28.475
		c-4.886,0-8.847-3.96-8.847-8.847c0-4.887,3.961-8.847,8.847-8.847c25.458,0,46.168,20.711,46.168,46.168v43.404
		C343.637,179.055,339.676,183.015,334.79,183.015z"/>
</g>
<circle style="fill:#2A324E;" cx="370.454" cy="251.577" r="8.847"/>
<path style="fill:#61ACD2;" d="M512,272.587v200.156H0V272.587c25.6,0,25.6,22.117,51.2,22.117
	c19.009,0,23.908-12.197,35.641-18.478c4.069-2.167,8.968-3.638,15.559-3.638c12.927,0,19.33,5.64,25.788,11.224
	c6.336,5.474,12.728,10.892,25.412,10.892c10.516,0,16.709-3.738,22.139-8.128c0.52-0.42,1.028-0.851,1.537-1.272
	c7.11-6.027,13.447-12.717,27.524-12.717c5.242,0,9.4,0.929,12.938,2.4c3.417,1.427,6.248,3.373,8.88,5.474h0.011
	c7.929,6.37,14.088,14.243,29.36,14.243c14.807,0,21.055-7.398,28.641-13.635c5.529-4.556,11.766-8.482,22.559-8.482
	c11.169,0,17.472,4.213,23.156,8.968c7.321,6.126,13.624,13.148,28.044,13.148c13.967,0,20.314-6.591,27.358-12.573
	c5.872-4.976,12.219-9.543,23.842-9.543c6.259,0,10.981,1.327,14.929,3.318c12.197,6.171,16.93,18.799,36.271,18.799
	C486.4,294.704,486.4,272.587,512,272.587z"/>
<g>
	<path style="fill:#4A8EB9;" d="M450.554,378.747c-4.886,0-8.847-3.961-8.847-8.847s3.961-8.847,8.847-8.847
		c8.869,0,12.925-3.503,18.539-8.353c6.528-5.64,14.652-12.657,30.106-12.657c4.886,0,8.847,3.961,8.847,8.847
		s-3.961,8.847-8.847,8.847c-8.87,0-12.926,3.503-18.54,8.353C474.132,371.729,466.007,378.747,450.554,378.747z"/>
	<path style="fill:#4A8EB9;" d="M353.271,378.747c-4.886,0-8.847-3.961-8.847-8.847s3.961-8.847,8.847-8.847
		c8.868,0,12.923-3.503,18.535-8.352c6.528-5.64,14.651-12.658,30.104-12.658c4.886,0,8.847,3.961,8.847,8.847
		s-3.961,8.847-8.847,8.847c-8.868,0-12.924,3.503-18.536,8.353C376.845,371.729,368.723,378.747,353.271,378.747z"/>
	<path style="fill:#4A8EB9;" d="M255.992,378.747c-4.886,0-8.847-3.961-8.847-8.847s3.961-8.847,8.847-8.847
		c8.868,0,12.924-3.503,18.536-8.353c6.528-5.64,14.651-12.657,30.103-12.657c4.886,0,8.847,3.961,8.847,8.847
		s-3.961,8.847-8.847,8.847c-8.868,0-12.923,3.503-18.535,8.352C279.569,371.729,271.445,378.747,255.992,378.747z"/>
	<path style="fill:#4A8EB9;" d="M158.716,378.747c-4.886,0-8.847-3.961-8.847-8.847s3.961-8.847,8.847-8.847
		c8.868,0,12.924-3.503,18.536-8.353c6.528-5.64,14.651-12.657,30.104-12.657c4.886,0,8.847,3.961,8.847,8.847
		s-3.961,8.847-8.847,8.847c-8.867,0-12.923,3.503-18.536,8.353C182.292,371.729,174.168,378.747,158.716,378.747z"/>
	<path style="fill:#4A8EB9;" d="M61.439,378.747c-4.886,0-8.847-3.961-8.847-8.847s3.961-8.847,8.847-8.847
		c8.867,0,12.924-3.503,18.536-8.353c6.528-5.64,14.651-12.657,30.104-12.657c4.886,0,8.847,3.961,8.847,8.847
		s-3.961,8.847-8.847,8.847c-8.868,0-12.924,3.503-18.536,8.353C85.014,371.729,76.891,378.747,61.439,378.747z"/>
	<path style="fill:#4A8EB9;" d="M450.554,441.78c-15.454,0-23.577-7.019-30.106-12.657c-5.614-4.85-9.67-8.353-18.54-8.353
		c-4.886,0-8.847-3.961-8.847-8.847s3.961-8.847,8.847-8.847c15.454,0,23.577,7.019,30.106,12.657
		c5.614,4.85,9.671,8.353,18.54,8.353c4.886,0,8.847,3.961,8.847,8.847S455.44,441.78,450.554,441.78z"/>
	<path style="fill:#4A8EB9;" d="M353.271,441.78c-15.453,0-23.576-7.019-30.105-12.657c-5.612-4.849-9.668-8.353-18.536-8.353
		c-4.886,0-8.847-3.961-8.847-8.847s3.961-8.847,8.847-8.847c15.452,0,23.575,7.019,30.103,12.657
		c5.613,4.849,9.669,8.353,18.538,8.353c4.886,0,8.847,3.961,8.847,8.847S358.157,441.78,353.271,441.78z"/>
	<path style="fill:#4A8EB9;" d="M255.992,441.78c-15.452,0-23.574-7.019-30.103-12.657c-5.612-4.849-9.667-8.353-18.535-8.353
		c-4.886,0-8.847-3.961-8.847-8.847s3.961-8.847,8.847-8.847c15.452,0,23.574,7.019,30.103,12.657
		c5.612,4.849,9.667,8.353,18.535,8.353c4.886,0,8.847,3.961,8.847,8.847S260.878,441.78,255.992,441.78z"/>
	<path style="fill:#4A8EB9;" d="M158.716,441.78c-15.453,0-23.575-7.019-30.104-12.658c-5.612-4.849-9.667-8.352-18.535-8.352
		c-4.886,0-8.847-3.961-8.847-8.847s3.961-8.847,8.847-8.847c15.452,0,23.574,7.019,30.103,12.657
		c5.612,4.849,9.668,8.353,18.536,8.353c4.886,0,8.847,3.961,8.847,8.847S163.601,441.78,158.716,441.78z"/>
	<path style="fill:#4A8EB9;" d="M61.439,441.78c-15.453,0-23.575-7.019-30.104-12.658c-5.612-4.849-9.667-8.352-18.535-8.352
		c-4.886,0-8.847-3.961-8.847-8.847s3.961-8.847,8.847-8.847c15.452,0,23.574,7.019,30.103,12.657
		c5.612,4.849,9.668,8.353,18.536,8.353c4.886,0,8.847,3.961,8.847,8.847S66.324,441.78,61.439,441.78z"/>
</g>
<g>
</g>
<g>
</g>
<g>
</g>
<g>
</g>
<g>
</g>
<g>
</g>
<g>
</g>
<g>
</g>
<g>
</g>
<g>
</g>
<g>
</g>
<g>
</g>
<g>
</g>
<g>
</g>
<g>
</g>
</svg>
